# xmcd
#
# Track frame offsets: 
#        183
#        27835
#        44670
#        55155
#        80288
#        93628
#        115355
#        129495
#        157280
#        172478
#
# Disc length: 2497 seconds
#
# Revision: 1
# Processed by: cddbd v1.5.2PL0 Copyright (c) Steve Scherf et al.
# Submitted via: ExactAudioCopyFreeDBPlugin 1.0
#
DISCID=8f09bf0a
DTITLE=Bobby Wilson - I'll Be Your Rainbow
DYEAR=1975
DGENRE=Soul
TTITLE0=Deeper And Deeper
TTITLE1=Hey, Girl (Tell Me)
TTITLE2=Let Me (Put Love Back In Your Life)
TTITLE3=I'll Be Your Rainbow
TTITLE4=Here Is Where The Love Is
TTITLE5=Don't Shut Me Out
TTITLE6=You Make Me Feel Good All Over
TTITLE7=I'll Take Good Care Of You
TTITLE8=All I Need (I've Got)
TTITLE9=When I Don't See A Smile On Your Face
EXTD=
EXTT0=
EXTT1=
EXTT2=
EXTT3=
EXTT4=
EXTT5=
EXTT6=
EXTT7=
EXTT8=
EXTT9=
PLAYORDER=
